<svg id="f6c07bae-1799-46fc-b41d-48c3cda0518d" data-name="Capa 1" xmlns="http://www.w3.org/2000/svg" viewBox="0 0 491 491"><defs><style>.ec119460-0842-47b0-93c2-b042ecca66c8{fill:#fff;stroke:#fff;stroke-miterlimit:10;}</style></defs><title>favicon</title><path class="ec119460-0842-47b0-93c2-b042ecca66c8" d="M250,5C114.69,5,5,114.69,5,250S114.69,495,250,495,495,385.31,495,250,385.31,5,250,5ZM197.67,400.68H76.13V245.83q29.85-14.6,59.68-29.19,29.1-14.2,58.22-28.35c1.1-.53,2.23-1,3.64-1.61Zm55.28-3.4v3.31H205.5V186.73c1,.47,1.94.82,2.79,1.27,14,7.43,27.89,14.93,41.91,22.26A4.55,4.55,0,0,1,253,215Q252.91,306.14,253,397.28Zm85.2,3.33H260.79V397q0-126.63-.06-253.25a4.76,4.76,0,0,1,2.95-4.94q35.67-18.86,71.22-37.9c1-.52,2-1,3.25-1.58Zm85.66,0h-77.3V99.37c1.12.54,2.12,1,3.08,1.49q35.75,19,71.5,38.08c1.93,1,2.78,2.05,2.78,4.36q-.11,127.29-.06,254.59Z" transform="translate(-4.5 -4.5)"/></svg>